<svg width="17" height="18" viewBox="0 0 17 18" fill="none" xmlns="http://www.w3.org/2000/svg">
<path d="M8.46673 8.8583L7.52671 9.85706C7.00671 10.4096 7.00671 11.3092 7.52671 11.8617C8.04671 12.4142 8.89339 12.4142 9.41339 11.8617L10.8934 10.2892C11.9334 9.18415 11.9334 7.39207 10.8934 6.27998C9.85341 5.17498 8.16672 5.17498 7.12005 6.27998L5.50673 7.99414C4.6134 8.9433 4.6134 10.4804 5.50673 11.4296" stroke="#212121" stroke-opacity="0.4" stroke-width="1.5" stroke-linecap="round" stroke-linejoin="round"/>
<path d="M8.33335 16.0834C12.0153 16.0834 15 12.912 15 9.00002C15 5.088 12.0153 1.91669 8.33335 1.91669C4.65146 1.91669 1.66669 5.088 1.66669 9.00002C1.66669 12.912 4.65146 16.0834 8.33335 16.0834Z" stroke="#212121" stroke-opacity="0.4" stroke-width="1.5" stroke-linecap="round" stroke-linejoin="round"/>
</svg>
