<svg width="17" height="16" viewBox="0 0 17 16" fill="none" xmlns="http://www.w3.org/2000/svg">
<path d="M10.6667 7.5H6.00006C5.72673 7.5 5.50006 7.27333 5.50006 7C5.50006 6.72667 5.72673 6.5 6.00006 6.5H10.6667C10.9401 6.5 11.1667 6.72667 11.1667 7C11.1667 7.27333 10.9401 7.5 10.6667 7.5Z" fill="#212121" fill-opacity="0.4"/>
<path d="M11 14.88C10.7734 14.88 10.5467 14.8133 10.3534 14.6867L7.51335 12.7933H5.00002C2.70669 12.7933 1.16669 11.2533 1.16669 8.95998V4.95998C1.16669 2.66665 2.70669 1.12665 5.00002 1.12665H11.6667C13.96 1.12665 15.5 2.66665 15.5 4.95998V8.95998C15.5 11.08 14.18 12.56 12.1667 12.7667V13.7133C12.1667 14.1467 11.9333 14.54 11.5533 14.74C11.38 14.8333 11.1867 14.88 11 14.88ZM5.00002 2.11997C3.28002 2.11997 2.16669 3.23331 2.16669 4.95331V8.95331C2.16669 10.6733 3.28002 11.7866 5.00002 11.7866H7.66669C7.76669 11.7866 7.86003 11.8133 7.9467 11.8733L10.9134 13.8467C10.9867 13.8933 11.0534 13.8733 11.0867 13.8533C11.12 13.8333 11.1734 13.7933 11.1734 13.7066V12.2866C11.1734 12.0133 11.4 11.7866 11.6734 11.7866C13.3934 11.7866 14.5067 10.6733 14.5067 8.95331V4.95331C14.5067 3.23331 13.3934 2.11997 11.6734 2.11997H5.00002Z" fill="#212121" fill-opacity="0.4"/>
</svg>
